<svg xmlns="http://www.w3.org/2000/svg" xmlns:xlink="http://www.w3.org/1999/xlink" width="500" zoomAndPan="magnify" viewBox="0 0 375 374.999991" height="500" preserveAspectRatio="xMidYMid meet" version="1.0"><defs><clipPath id="934532ae80"><path d="M 0 0 L 375 0 L 375 375 L 0 375 Z M 0 0 " clip-rule="nonzero"/></clipPath><clipPath id="f6e92d5f3a"><rect x="0" width="375" y="0" height="375"/></clipPath></defs><rect x="-37.5" width="450" fill="#ffffff" y="-37.499999" height="449.999989" fill-opacity="1"/><rect x="-37.5" width="450" fill="#ffffff" y="-37.499999" height="449.999989" fill-opacity="1"/><g transform="matrix(1, 0, 0, 1, 0, 0)"><g clip-path="url(#f6e92d5f3a)"><g clip-path="url(#934532ae80)"><rect x="-82.5" width="540" fill="#000000" height="539.999987" y="-82.499998" fill-opacity="1"/></g><path stroke-linecap="butt" transform="matrix(11.363635, 0, 0, 11.363635, 0.0000045, 0)" fill-opacity="1" fill="#000000" fill-rule="nonzero" stroke-linejoin="miter" d="M 1.999937 2.500094 L 9.000063 2.500094 M 10.000032 2.500094 L 11.999969 2.500094 M 17.000157 2.500094 L 19.000095 2.500094 M 20.000064 2.500094 L 22.99997 2.500094 M 23.999939 2.500094 L 31.000065 2.500094 M 1.999937 3.500063 L 2.999906 3.500063 M 8.000094 3.500063 L 9.000063 3.500063 M 10.000032 3.500063 L 11.000001 3.500063 M 11.999969 3.500063 L 12.999938 3.500063 M 13.999907 3.500063 L 14.999876 3.500063 M 15.999845 3.500063 L 18.000126 3.500063 M 19.000095 3.500063 L 21.000033 3.500063 M 23.999939 3.500063 L 24.999908 3.500063 M 30.000096 3.500063 L 31.000065 3.500063 M 1.999937 4.500032 L 2.999906 4.500032 M 3.999875 4.500032 L 7.000125 4.500032 M 8.000094 4.500032 L 9.000063 4.500032 M 13.999907 4.500032 L 18.000126 4.500032 M 20.000064 4.500032 L 22.000001 4.500032 M 23.999939 4.500032 L 24.999908 4.500032 M 25.999877 4.500032 L 29.000127 4.500032 M 30.000096 4.500032 L 31.000065 4.500032 M 1.999937 5.5 L 2.999906 5.5 M 3.999875 5.5 L 7.000125 5.5 M 8.000094 5.5 L 9.000063 5.5 M 10.000032 5.5 L 12.999938 5.5 M 13.999907 5.5 L 14.999876 5.5 M 19.000095 5.5 L 20.000064 5.5 M 21.000033 5.5 L 22.99997 5.5 M 23.999939 5.5 L 24.999908 5.5 M 25.999877 5.5 L 29.000127 5.5 M 30.000096 5.5 L 31.000065 5.5 M 1.999937 6.499969 L 2.999906 6.499969 M 3.999875 6.499969 L 7.000125 6.499969 M 8.000094 6.499969 L 9.000063 6.499969 M 11.000001 6.499969 L 12.999938 6.499969 M 14.999876 6.499969 L 15.999845 6.499969 M 19.000095 6.499969 L 22.000001 6.499969 M 23.999939 6.499969 L 24.999908 6.499969 M 25.999877 6.499969 L 29.000127 6.499969 M 30.000096 6.499969 L 31.000065 6.499969 M 1.999937 7.499938 L 2.999906 7.499938 M 8.000094 7.499938 L 9.000063 7.499938 M 11.000001 7.499938 L 11.999969 7.499938 M 13.999907 7.499938 L 14.999876 7.499938 M 15.999845 7.499938 L 17.000157 7.499938 M 19.000095 7.499938 L 22.99997 7.499938 M 23.999939 7.499938 L 24.999908 7.499938 M 30.000096 7.499938 L 31.000065 7.499938 M 1.999937 8.499907 L 9.000063 8.499907 M 10.000032 8.499907 L 11.000001 8.499907 M 11.999969 8.499907 L 12.999938 8.499907 M 13.999907 8.499907 L 14.999876 8.499907 M 15.999845 8.499907 L 17.000157 8.499907 M 18.000126 8.499907 L 19.000095 8.499907 M 20.000064 8.499907 L 21.000033 8.499907 M 22.000001 8.499907 L 22.99997 8.499907 M 23.999939 8.499907 L 31.000065 8.499907 M 10.000032 9.499876 L 11.000001 9.499876 M 13.999907 9.499876 L 20.000064 9.499876 M 22.000001 9.499876 L 22.99997 9.499876 M 1.999937 10.499845 L 2.999906 10.499845 M 3.999875 10.499845 L 6.000156 10.499845 M 7.000125 10.499845 L 10.000032 10.499845 M 11.999969 10.499845 L 12.999938 10.499845 M 13.999907 10.499845 L 20.000064 10.499845 M 23.999939 10.499845 L 24.999908 10.499845 M 26.999846 10.499845 L 28.000158 10.499845 M 29.000127 10.499845 L 31.000065 10.499845 M 6.000156 11.500157 L 8.000094 11.500157 M 13.999907 11.500157 L 14.999876 11.500157 M 19.000095 11.500157 L 22.99997 11.500157 M 23.999939 11.500157 L 26.999846 11.500157 M 30.000096 11.500157 L 31.000065 11.500157 M 1.999937 12.500126 L 6.000156 12.500126 M 7.000125 12.500126 L 10.000032 12.500126 M 12.999938 12.500126 L 14.999876 12.500126 M 15.999845 12.500126 L 17.000157 12.500126 M 18.000126 12.500126 L 19.000095 12.500126 M 20.000064 12.500126 L 21.000033 12.500126 M 22.000001 12.500126 L 23.999939 12.500126 M 28.000158 12.500126 L 30.000096 12.500126 M 1.999937 13.500095 L 8.000094 13.500095 M 11.999969 13.500095 L 12.999938 13.500095 M 13.999907 13.500095 L 18.000126 13.500095 M 21.000033 13.500095 L 22.99997 13.500095 M 23.999939 13.500095 L 24.999908 13.500095 M 30.000096 13.500095 L 31.000065 13.500095 M 2.999906 14.500064 L 3.999875 14.500064 M 8.000094 14.500064 L 9.000063 14.500064 M 10.000032 14.500064 L 11.000001 14.500064 M 11.999969 14.500064 L 12.999938 14.500064 M 19.000095 14.500064 L 20.000064 14.500064 M 21.000033 14.500064 L 22.000001 14.500064 M 26.999846 14.500064 L 29.000127 14.500064 M 4.999844 15.500033 L 7.000125 15.500033 M 9.000063 15.500033 L 10.000032 15.500033 M 11.999969 15.500033 L 12.999938 15.500033 M 13.999907 15.500033 L 15.999845 15.500033 M 17.000157 15.500033 L 20.000064 15.500033 M 21.000033 15.500033 L 22.000001 15.500033 M 22.99997 15.500033 L 24.999908 15.500033 M 28.000158 15.500033 L 31.000065 15.500033 M 1.999937 16.500001 L 3.999875 16.500001 M 4.999844 16.500001 L 6.000156 16.500001 M 8.000094 16.500001 L 9.000063 16.500001 M 11.000001 16.500001 L 12.999938 16.500001 M 13.999907 16.500001 L 14.999876 16.500001 M 15.999845 16.500001 L 17.000157 16.500001 M 19.000095 16.500001 L 22.99997 16.500001 M 23.999939 16.500001 L 24.999908 16.500001 M 25.999877 16.500001 L 26.999846 16.500001 M 28.000158 16.500001 L 31.000065 16.500001 M 1.999937 17.49997 L 3.999875 17.49997 M 4.999844 17.49997 L 6.000156 17.49997 M 9.000063 17.49997 L 11.000001 17.49997 M 11.999969 17.49997 L 12.999938 17.49997 M 14.999876 17.49997 L 15.999845 17.49997 M 17.000157 17.49997 L 18.000126 17.49997 M 23.999939 17.49997 L 24.999908 17.49997 M 29.000127 17.49997 L 30.000096 17.49997 M 1.999937 18.499939 L 3.999875 18.499939 M 4.999844 18.499939 L 7.000125 18.499939 M 8.000094 18.499939 L 9.000063 18.499939 M 10.000032 18.499939 L 11.000001 18.499939 M 12.999938 18.499939 L 13.999907 18.499939 M 17.000157 18.499939 L 18.000126 18.499939 M 20.000064 18.499939 L 21.000033 18.499939 M 22.000001 18.499939 L 23.999939 18.499939 M 24.999908 18.499939 L 28.000158 18.499939 M 29.000127 18.499939 L 30.000096 18.499939 M 3.999875 19.499908 L 4.999844 19.499908 M 7.000125 19.499908 L 8.000094 19.499908 M 9.000063 19.499908 L 11.999969 19.499908 M 12.999938 19.499908 L 13.999907 19.499908 M 14.999876 19.499908 L 15.999845 19.499908 M 17.000157 19.499908 L 18.000126 19.499908 M 19.000095 19.499908 L 20.000064 19.499908 M 22.000001 19.499908 L 22.99997 19.499908 M 24.999908 19.499908 L 25.999877 19.499908 M 26.999846 19.499908 L 30.000096 19.499908 M 1.999937 20.499877 L 2.999906 20.499877 M 6.000156 20.499877 L 7.000125 20.499877 M 8.000094 20.499877 L 10.000032 20.499877 M 12.999938 20.499877 L 14.999876 20.499877 M 17.000157 20.499877 L 18.000126 20.499877 M 20.000064 20.499877 L 21.000033 20.499877 M 22.99997 20.499877 L 26.999846 20.499877 M 28.000158 20.499877 L 29.000127 20.499877 M 3.999875 21.499846 L 4.999844 21.499846 M 7.000125 21.499846 L 8.000094 21.499846 M 9.000063 21.499846 L 14.999876 21.499846 M 17.000157 21.499846 L 21.000033 21.499846 M 22.000001 21.499846 L 22.99997 21.499846 M 24.999908 21.499846 L 26.999846 21.499846 M 28.000158 21.499846 L 29.000127 21.499846 M 2.999906 22.500158 L 3.999875 22.500158 M 4.999844 22.500158 L 6.000156 22.500158 M 7.000125 22.500158 L 10.000032 22.500158 M 12.999938 22.500158 L 13.999907 22.500158 M 14.999876 22.500158 L 15.999845 22.500158 M 17.000157 22.500158 L 21.000033 22.500158 M 22.000001 22.500158 L 29.000127 22.500158 M 10.000032 23.500127 L 12.999938 23.500127 M 13.999907 23.500127 L 17.000157 23.500127 M 22.000001 23.500127 L 22.99997 23.500127 M 25.999877 23.500127 L 31.000065 23.500127 M 1.999937 24.500096 L 9.000063 24.500096 M 10.000032 24.500096 L 11.000001 24.500096 M 11.999969 24.500096 L 15.999845 24.500096 M 19.000095 24.500096 L 22.99997 24.500096 M 23.999939 24.500096 L 24.999908 24.500096 M 25.999877 24.500096 L 28.000158 24.500096 M 29.000127 24.500096 L 30.000096 24.500096 M 1.999937 25.500065 L 2.999906 25.500065 M 8.000094 25.500065 L 9.000063 25.500065 M 10.000032 25.500065 L 11.000001 25.500065 M 13.999907 25.500065 L 14.999876 25.500065 M 17.000157 25.500065 L 19.000095 25.500065 M 22.000001 25.500065 L 22.99997 25.500065 M 25.999877 25.500065 L 28.000158 25.500065 M 29.000127 25.500065 L 30.000096 25.500065 M 1.999937 26.500033 L 2.999906 26.500033 M 3.999875 26.500033 L 7.000125 26.500033 M 8.000094 26.500033 L 9.000063 26.500033 M 11.000001 26.500033 L 11.999969 26.500033 M 12.999938 26.500033 L 13.999907 26.500033 M 15.999845 26.500033 L 18.000126 26.500033 M 19.000095 26.500033 L 20.000064 26.500033 M 22.000001 26.500033 L 26.999846 26.500033 M 28.000158 26.500033 L 30.000096 26.500033 M 1.999937 27.500002 L 2.999906 27.500002 M 3.999875 27.500002 L 7.000125 27.500002 M 8.000094 27.500002 L 9.000063 27.500002 M 10.000032 27.500002 L 11.000001 27.500002 M 11.999969 27.500002 L 19.000095 27.500002 M 21.000033 27.500002 L 22.000001 27.500002 M 22.99997 27.500002 L 23.999939 27.500002 M 24.999908 27.500002 L 28.000158 27.500002 M 30.000096 27.500002 L 31.000065 27.500002 M 1.999937 28.499971 L 2.999906 28.499971 M 3.999875 28.499971 L 7.000125 28.499971 M 8.000094 28.499971 L 9.000063 28.499971 M 10.000032 28.499971 L 12.999938 28.499971 M 13.999907 28.499971 L 15.999845 28.499971 M 21.000033 28.499971 L 22.99997 28.499971 M 24.999908 28.499971 L 25.999877 28.499971 M 28.000158 28.499971 L 29.000127 28.499971 M 30.000096 28.499971 L 31.000065 28.499971 M 1.999937 29.49994 L 2.999906 29.49994 M 8.000094 29.49994 L 9.000063 29.49994 M 11.000001 29.49994 L 11.999969 29.49994 M 12.999938 29.49994 L 13.999907 29.49994 M 17.000157 29.49994 L 19.000095 29.49994 M 20.000064 29.49994 L 21.000033 29.49994 M 22.000001 29.49994 L 24.999908 29.49994 M 26.999846 29.49994 L 28.000158 29.49994 M 29.000127 29.49994 L 30.000096 29.49994 M 1.999937 30.499909 L 9.000063 30.499909 M 10.000032 30.499909 L 11.000001 30.499909 M 12.999938 30.499909 L 13.999907 30.499909 M 14.999876 30.499909 L 15.999845 30.499909 M 18.000126 30.499909 L 19.000095 30.499909 M 20.000064 30.499909 L 23.999939 30.499909 M 25.999877 30.499909 L 26.999846 30.499909 M 29.000127 30.499909 L 30.000096 30.499909 " stroke="#33ff00" stroke-width="1" stroke-opacity="1" stroke-miterlimit="4"/></g></g></svg>